<?xml version="1.0" encoding="utf-8"?>
<!-- Generator: Adobe Illustrator 24.2.3, SVG Export Plug-In . SVG Version: 6.00 Build 0)  -->
<svg version="1.1" id="Layer_1" xmlns="http://www.w3.org/2000/svg" xmlns:xlink="http://www.w3.org/1999/xlink" x="0px" y="0px"
	 viewBox="0 0 552 92.5" style="enable-background:new 0 0 552 92.5;" xml:space="preserve">
<style type="text/css">
	.st0{fill:#231F20;}
	.st1{fill:#662D91;}
	.st2{fill:#1C75BC;}
	.st3{fill:#00AEEF;}
	.st4{fill:#1873BB;}
	.st5{enable-background:new    ;}
</style>
<path class="st0" d="M212.4,68.1h1.5l4.9,12.8h-2.6l-3.1-8.7l-3.1,8.7h-2.4L212.4,68.1z M209.9,76.5h6.7v2.3h-6.7V76.5z"/>
<path class="st0" d="M224.8,68.1h1.5l4.9,12.8h-2.6l-3.1-8.7l-3.1,8.7h-2.6L224.8,68.1z M222.2,76.5h6.7v2.3h-6.7V76.5z"/>
<path class="st0" d="M233.3,68.1h2.4v12.8h-2.4V68.1z M234.4,73.6h4.1c0.3,0,0.5-0.1,0.8-0.2c0.2-0.1,0.4-0.3,0.5-0.6
	c0.2-0.5,0.2-1.1,0-1.7c-0.1-0.2-0.3-0.4-0.5-0.6c-0.2-0.1-0.5-0.2-0.8-0.2h-4.1V68h4c0.7,0,1.5,0.2,2.1,0.5s1.1,0.8,1.4,1.4
	s0.5,1.3,0.5,2.1c0,0.7-0.2,1.4-0.5,2.1c-0.3,0.6-0.8,1.1-1.4,1.4c-0.7,0.3-1.4,0.5-2.1,0.5h-4V73.6z"/>
<path class="st0" d="M244.8,68.1h2.4v12.8h-2.4V68.1z M246.3,75.9l5.1-7.8h3L246.5,79L246.3,75.9z M248.4,74.4l2.1-1.3l4.5,7.8h-2.9
	L248.4,74.4z"/>
<path class="st0" d="M259.4,80.9h-2.5V68.1h2.5V80.9z"/>
<path class="st0" d="M270.1,80.9c-0.6-0.1-1.1-0.3-1.6-0.5s-1-0.5-1.4-0.9l1.1-2c0.5,0.4,1.1,0.7,1.7,0.9c0.6,0.2,1.3,0.3,2,0.3
	c0.6,0,1.3-0.1,1.8-0.4c0.4-0.2,0.7-0.7,0.6-1.1l0,0c0-0.3-0.1-0.6-0.3-0.8c-0.2-0.2-0.5-0.4-0.8-0.4c-0.4-0.1-0.8-0.2-1.2-0.3h-0.1
	h-0.2c-0.7-0.1-1.4-0.3-2.1-0.5c-0.6-0.2-1.1-0.6-1.4-1.1c-0.4-0.6-0.6-1.4-0.6-2.2l0,0c0-0.7,0.2-1.5,0.5-2.1
	c0.4-0.6,0.9-1.1,1.6-1.3c1.3-0.5,2.6-0.6,4-0.3c0.5,0.1,1,0.3,1.4,0.4c0.5,0.2,0.9,0.4,1.3,0.7l-1,2c-0.5-0.3-1-0.6-1.6-0.8
	c-0.5-0.2-1-0.3-1.5-0.3c-0.6,0-1.2,0.1-1.7,0.4c-0.4,0.2-0.6,0.6-0.6,1l0,0c0,0.3,0.1,0.6,0.3,0.9c0.2,0.2,0.5,0.4,0.8,0.5
	c0.4,0.1,0.9,0.2,1.3,0.3h0.1h0.1h0.1h0.1c0.7,0.1,1.4,0.3,2,0.6c0.6,0.2,1,0.6,1.4,1.1c0.4,0.6,0.6,1.3,0.5,2l0,0
	c0,0.7-0.2,1.5-0.6,2.1s-1,1.1-1.7,1.3c-0.8,0.3-1.7,0.5-2.6,0.5C271.2,80.9,270.6,80.9,270.1,80.9z"/>
<path class="st0" d="M281,80.5c-0.7-0.4-1.2-0.9-1.6-1.6c-0.4-0.8-0.6-1.7-0.5-2.6v-8.2h2.4v8.2c0,0.6,0.2,1.2,0.6,1.7
	c0.4,0.4,1,0.7,1.7,0.6c0.6,0,1.2-0.2,1.7-0.6c0.4-0.5,0.6-1.1,0.6-1.7v-8.2h2.4v8.2c0,0.9-0.2,1.8-0.5,2.6
	c-0.4,0.7-0.9,1.3-1.6,1.6c-0.8,0.4-1.7,0.6-2.5,0.6C282.7,81.1,281.8,80.9,281,80.5z"/>
<path class="st0" d="M291.2,68.1h2.4v12.8h-2.4V68.1z M292.2,73.5h4.5c0.2,0,0.5-0.1,0.6-0.2c0.2-0.1,0.3-0.3,0.4-0.5
	c0.2-0.5,0.2-1.1,0-1.6c-0.1-0.2-0.2-0.4-0.4-0.5c-0.2-0.1-0.4-0.2-0.6-0.2h-4.5v-2.3h4.6c0.6,0,1.3,0.2,1.9,0.5
	c0.5,0.3,0.9,0.8,1.2,1.4c0.6,1.3,0.6,2.7,0,4c-0.3,0.6-0.7,1-1.2,1.3c-0.6,0.3-1.2,0.5-1.9,0.5h-4.6V73.5z M294.9,75.4l2.6-0.4
	l3.4,5.9H298L294.9,75.4z"/>
<path class="st0" d="M306.6,68.1h1.5l4.9,12.8h-2.6l-3.1-8.7l-3.1,8.7h-2.6L306.6,68.1z M304.1,76.5h6.8v2.3h-6.7L304.1,76.5z"/>
<path class="st0" d="M315.2,68.1h2.4v12.8h-2.4V68.1z M316.6,75.9l5.1-7.8h3L316.8,79L316.6,75.9z M318.7,74.4l2.1-1.3l4.5,7.8h-2.9
	L318.7,74.4z"/>
<path class="st0" d="M328.9,80.9c-0.6-0.1-1.1-0.3-1.6-0.5s-1-0.5-1.4-0.9l1.1-2c0.5,0.4,1.1,0.7,1.7,0.9c0.6,0.2,1.3,0.3,2,0.3
	c0.6,0,1.3-0.1,1.8-0.4c0.4-0.2,0.7-0.7,0.6-1.1l0,0c0-0.3-0.1-0.6-0.3-0.8c-0.2-0.2-0.5-0.4-0.8-0.4c-0.4-0.1-0.8-0.2-1.2-0.3l0,0
	h-0.2c-0.7-0.1-1.4-0.3-2.1-0.5c-0.6-0.2-1.1-0.6-1.4-1.1c-0.4-0.6-0.6-1.4-0.6-2.2l0,0c0-0.7,0.2-1.5,0.5-2.1
	c0.4-0.6,0.9-1.1,1.6-1.3c0.8-0.3,1.7-0.5,2.5-0.5c0.5,0,0.9,0.1,1.4,0.2s1,0.3,1.4,0.4c0.5,0.2,0.9,0.4,1.3,0.7l-1,2
	c-0.5-0.3-1-0.6-1.5-0.8c-0.5-0.2-1-0.3-1.5-0.3c-0.6,0-1.2,0.1-1.7,0.4c-0.4,0.2-0.6,0.6-0.6,1l0,0c0,0.3,0.1,0.6,0.3,0.9
	c0.2,0.2,0.5,0.4,0.8,0.5c0.4,0.1,0.9,0.2,1.3,0.3h0.1h0.1h0.1h0.1c0.7,0.1,1.4,0.3,2,0.6c0.6,0.2,1,0.6,1.4,1.1
	c0.4,0.6,0.6,1.3,0.5,2l0,0c0,0.7-0.2,1.5-0.6,2.1s-1,1.1-1.7,1.3c-0.8,0.3-1.7,0.5-2.6,0.5C330.1,80.9,329.5,80.9,328.9,80.9z"/>
<path class="st0" d="M338.1,68.1h2.4v12.8h-2.4V68.1z M339.2,73.4h7.4v2.3h-7.4V73.4z M345.1,68.1h2.4v12.8h-2.4V68.1z"/>
<path class="st0" d="M354.3,68.1h1.5l4.9,12.8h-2.6l-3.1-8.7l-3.1,8.7h-2.6L354.3,68.1z M351.7,76.5h6.7v2.3h-6.7V76.5z"/>
<path class="st0" d="M362.2,78.5h2.4v3.2l-2.4,2.3V78.5z"/>
<path class="st0" d="M372.7,68.1h2.4v12.8h-2.4V68.1z M373.9,73.4h7.5v2.3h-7.5V73.4z M379.8,68.1h2.4v12.8h-2.4V68.1z"/>
<path class="st0" d="M388.9,68.1h1.5l4.9,12.8h-2.6l-3-8.7l-3.1,8.7H384L388.9,68.1z M386.3,76.5h6.7v2.3h-6.7V76.5z"/>
<path class="st0" d="M405.5,68.1h3.2v12.8h-2.2V71l0.1,0.6l-2.4,7.9h-2.1l-2.4-7.8l0.1-0.7v9.9h-2.2V68.1h3.2l2.4,8.6L405.5,68.1z"
	/>
<path class="st0" d="M415.4,68.1h1.5l4.9,12.8h-2.6l-3-8.7l-3.1,8.7h-2.5L415.4,68.1z M412.9,76.5h6.7v2.3h-6.7V76.5z"/>
<path class="st0" d="M423.9,68.1h2.4v12.8h-2.4V68.1z M424.9,73.5h4.5c0.2,0,0.5-0.1,0.6-0.2c0.2-0.1,0.3-0.3,0.4-0.5
	c0.2-0.5,0.2-1.1,0-1.6c-0.1-0.2-0.2-0.4-0.4-0.5c-0.2-0.1-0.4-0.2-0.7-0.2h-4.5v-2.3h4.6c0.7,0,1.3,0.2,1.9,0.5
	c0.5,0.3,1,0.8,1.3,1.4c0.6,1.3,0.6,2.7,0,4c-0.3,0.6-0.7,1-1.3,1.3c-0.6,0.3-1.2,0.5-1.9,0.5h-4.6L424.9,73.5z M427.6,75.4l2.6-0.4
	l3.4,5.9h-3L427.6,75.4z"/>
<path class="st0" d="M438.5,80.9H436V68.1h2.5V80.9z"/>
<path class="st0" d="M454.6,70.3l-5.3,8.3h5.4v2.3h-8.3v-2.2l5.3-8.3h-5.1v-2.3h8V70.3z"/>
<path class="st0" d="M459.6,80.9h-2.5V68.1h2.5V80.9z"/>
<path class="st0" d="M470.8,68.1h3.2v12.8h-2.2V71l0.1,0.6l-2.4,7.9h-2.1l-2.4-7.8V71v9.9h-2.2V68.1h3.2l2.4,8.6L470.8,68.1z"/>
<path class="st0" d="M485.3,68.1h3.2v12.8h-2.2V71l0.1,0.6l-2.4,7.9h-2.1l-2.4-7.8l0.1-0.7v9.9h-2.2V68.1h3.2l2.5,8.6L485.3,68.1z"
	/>
<path class="st0" d="M491.8,68.1h2.4v12.8h-2.4V68.1z M492.7,68.1h7.7v2.3h-7.7V68.1z M492.7,73.4h6.7v2.3h-6.7V73.4z M492.7,78.6
	h7.7v2.3h-7.7V78.6z"/>
<path class="st0" d="M503,68.1h2.4v12.8H503V68.1z M504.3,78.6h3.1c0.7,0,1.3-0.2,1.8-0.6c0.4-0.4,0.7-1,0.7-1.6v-3.8
	c0-0.6-0.2-1.2-0.7-1.6s-1.2-0.6-1.8-0.6h-3.1v-2.3h3c0.9,0,1.9,0.2,2.7,0.5c0.7,0.3,1.3,0.9,1.7,1.6c0.4,0.8,0.6,1.6,0.6,2.5v3.6
	c0,0.8-0.2,1.7-0.6,2.4c-0.4,0.7-1,1.3-1.7,1.6c-0.9,0.4-1.8,0.6-2.8,0.6h-3L504.3,78.6z"/>
<path class="st0" d="M518.5,68.1h1.5l4.9,12.8h-2.6l-3.1-8.7l-3.1,8.7h-2.5L518.5,68.1z M516,76.5h6.7v2.3H516V76.5z"/>
<path class="st0" d="M527,68.1h2.4v12.8H527V68.1z M528,73.5h4.4c0.2,0,0.5-0.1,0.7-0.2c0.2-0.1,0.3-0.3,0.4-0.5
	c0.1-0.3,0.2-0.5,0.2-0.8s0-0.5-0.2-0.8c-0.1-0.2-0.2-0.4-0.4-0.5c-0.2-0.1-0.4-0.2-0.7-0.2H528v-2.3h4.6c0.6,0,1.3,0.2,1.8,0.5
	s0.9,0.8,1.2,1.4c0.6,1.3,0.6,2.7,0,4c-0.3,0.6-0.7,1-1.2,1.3c-0.6,0.3-1.2,0.5-1.8,0.5H528V73.5z M530.7,75.4l2.6-0.4l3.5,5.9h-2.9
	L530.7,75.4z"/>
<path class="st0" d="M541.5,80.9H539V68.1h2.5V80.9z"/>
<path class="st1" d="M175.4,80.1h-7.1c0.8-3.9,1.6-7.9,2.4-11.8h7.1C177,72.3,176.2,76.2,175.4,80.1z"/>
<path class="st2" d="M187.1,80.1H180c0.8-3.9,1.6-7.9,2.4-11.8h7.1C188.6,72.3,187.9,76.2,187.1,80.1z"/>
<path class="st3" d="M197.7,80.1h-7.1c0.8-3.9,1.6-7.9,2.4-11.8h7.1C199.3,72.3,198.5,76.2,197.7,80.1z"/>
<g>
	<path class="st4" d="M15.6,15.7h10.8l5.8,17.9V15.7h11.7v44.6H32.2l-6.1-18.6v18.6H15.6V15.7z"/>
	<path class="st4" d="M52.7,15.7h11.4v44.6H52.7V15.7z"/>
	<path class="st4" d="M84,39.3v21H73V15.7h12l6.2,18.8l6.2-18.8h12.1v44.6H98.4v-21l-7.2,17.8L84,39.3z"/>
	<path class="st4" d="M147.2,33.4c0,2.2-0.9,3.9-3.9,4.6c3.1,0.1,4.5,2,4.5,3.9v11.6c0,4.9-2.4,6.9-8.9,6.9h-20.6V15.7h22.2
		c4.5,0,6.7,2.2,6.7,5.4V33.4z M129.6,23.5v11.7h5.3c0.8,0,1.4-0.4,1.4-1.2v-9.7c0-0.6-0.2-0.9-1-0.9H129.6z M136.5,43.3
		c0-1-0.7-1.3-1.7-1.3h-5.2v10.5h5.7c0.9,0,1.2-0.2,1.2-0.9V43.3z"/>
	<path class="st4" d="M165.5,60.3c-6.5,0-8.9-2-8.9-6.9V15.7h11.6v35.8c0,0.7,0.2,1,1.1,1h4c0.9,0,1.1-0.3,1.1-1V15.7h11.6v37.7
		c0,4.9-2.4,6.9-8.9,6.9H165.5z"/>
	<path class="st4" d="M197.7,60.3l-2-8.3h12.2c1,0,1.3-0.2,1.3-0.9V43c0-1.2-0.5-1.3-2.1-1.3h-5.9c-3.4,0-6.4-0.6-6.4-5V21.5
		c0-3.5,2.4-5.8,7.7-5.8h15.7l2,8.3h-12.9c-0.9,0-1.4,0.3-1.4,1v8.1c0,0.9,0.5,1.2,1.7,1.2h7.1c3.6,0,5.6,1.2,5.6,4.6v14.7
		c0,4.9-2.2,6.8-8.7,6.8H197.7z"/>
</g>
<g class="st5">
	<path d="M245.5,15.7h11.4v44.6h-11.4V15.7z"/>
	<path d="M265.7,15.7h10.8l5.8,17.9V15.7H294v44.6h-11.7l-6.1-18.6v18.6h-10.5V15.7z"/>
	<path d="M305.7,60.3l-2-8.3h12.2c1,0,1.3-0.2,1.3-0.9V43c0-1.2-0.5-1.3-2.1-1.3h-5.9c-3.4,0-6.4-0.6-6.4-5V21.5
		c0-3.5,2.4-5.8,7.7-5.8h15.7l2,8.3h-12.9c-0.9,0-1.4,0.3-1.4,1v8.1c0,0.9,0.5,1.2,1.7,1.2h7.1c3.6,0,5.6,1.2,5.6,4.6v14.7
		c0,4.9-2.2,6.8-8.7,6.8H305.7z"/>
	<path d="M346.2,60.3c-6.5,0-8.9-2-8.9-6.9V15.7h11.6v35.8c0,0.7,0.2,1,1.1,1h4c0.9,0,1.1-0.3,1.1-1V15.7h11.6v37.7
		c0,4.9-2.4,6.9-8.9,6.9H346.2z"/>
	<path d="M404.8,42.2c0,2-1.8,3.9-5.1,3.9l6,14.2h-11.8l-5.5-14.2h-1.5v14.2h-11.4V15.7h21.6c5.3,0,7.7,2.3,7.7,5.8V42.2z
		 M386.9,23.5v15.4h5.6c0.9,0,1.1-0.2,1.1-0.9V24.4c0-0.6-0.3-0.9-1.1-0.9H386.9z"/>
	<path d="M424.2,54.8l-1,5.5h-11.4L422,15.7h12.2l10.3,44.6H433l-1-5.5H424.2z M425.5,47.7h5.3l-2.6-15.8L425.5,47.7z"/>
	<path d="M451.7,15.7h10.8l5.8,17.9V15.7H480v44.6h-11.7l-6.1-18.6v18.6h-10.5V15.7z"/>
	<path d="M497.8,60.3c-6.5,0-8.9-2-8.9-6.9V21.2c0-3.5,2.9-5.5,6.7-5.5h15l2,8.3h-10.9c-0.8,0-1,0.3-1,0.9v26.3c0,0.6,0.2,0.9,1,0.9
		h10.9l-2,8.3H497.8z"/>
	<path d="M520.6,15.7h22.1l2,8.3h-12.4v10.6h9.4v7.7h-9.4V52h11.9l-2,8.3h-21.6V15.7z"/>
</g>
</svg>
